<?xml version="1.0" encoding="UTF-8"?>
<svg id="Layer_1" data-name="Layer 1" xmlns="http://www.w3.org/2000/svg" viewBox="0 0 24 24">
  <path d="M15.516,14.328c-.114,0-.228-.035-.326-.109-.241-.18-.289-.522-.109-.763.577-.77.577-1.845,0-2.615-.181-.241-.132-.582.109-.763.242-.181.582-.131.763.109.866,1.155.866,2.768,0,3.922-.107.143-.271.218-.436.218Z" fill="#d70f15"/>
  <path d="M23.286,11.285c-.395,0-.715.32-.715.715,0,5.829-4.742,10.571-10.571,10.571S1.429,17.829,1.429,12,6.171,1.429,11.998,1.429c2.459.009,4.809.792,6.761,2.227l-.823.091c-.392.043-.675.397-.632.789.04.366.35.636.709.636.026,0,.053-.001.079-.004l2.486-.275c.392-.043.675-.396.632-.789l-.275-2.486c-.043-.392-.397-.676-.789-.632-.392.043-.675.396-.632.789l.08.721C17.402.888,14.763.01,12,0,5.383,0,0,5.383,0,12s5.383,12,12,12,12-5.383,12-12c0-.395-.32-.715-.715-.715Z" fill="#d70f15"/>
  <path d="M13.617,7.194c0-.615-.744-.923-1.179-.488l-2.688,2.688c-.13.13-.305.202-.488.202h-1.95c-.381,0-.691.309-.691.691v3.405c0,.381.309.691.691.691h1.95c.183,0,.359.073.488.202l2.688,2.688c.435.435,1.179.127,1.179-.488V7.194Z" fill="#d70f15"/>
</svg>