<?xml version="1.0" encoding="UTF-8"?>
<svg id="Layer_1" data-name="Layer 1" xmlns="http://www.w3.org/2000/svg" viewBox="0 0 24 24">
  <path d="M14.861,14.328c-.114,0-.228-.035-.326-.109-.241-.18-.289-.522-.109-.763.577-.77.577-1.845,0-2.615-.181-.241-.132-.582.109-.763.242-.181.582-.131.763.109.866,1.155.866,2.768,0,3.922-.107.143-.271.218-.436.218Z" fill="#d70f15"/>
  <path d="M16.694,16.161c-.139,0-.279-.053-.385-.16-.213-.213-.213-.558,0-.77.823-.823,1.276-1.917,1.276-3.082s-.453-2.258-1.276-3.081c-.213-.213-.213-.557,0-.77s.557-.213.77,0c1.029,1.029,1.596,2.397,1.595,3.852,0,1.455-.567,2.823-1.596,3.852-.106.106-.246.16-.385.16Z" fill="#d70f15"/>
  <path d="M23.285,11.285c-.395,0-.715.32-.715.715,0,5.829-4.742,10.571-10.571,10.571S1.429,17.829,1.429,12,6.171,1.429,11.997,1.429c2.721.01,5.308.968,7.37,2.708h-1.453c-.395,0-.715.32-.715.715s.32.715.715.715h3.285c.395,0,.715-.32.715-.715V1.567c0-.395-.32-.715-.715-.715s-.715.32-.715.715v1.642C18.136,1.147,15.148.012,12,0,5.383,0,0,5.383,0,12s5.383,12,12,12,12-5.383,12-12c0-.395-.32-.715-.715-.715Z" fill="#d70f15"/>
  <path d="M12.962,7.194c0-.615-.744-.923-1.179-.488l-2.688,2.688c-.13.13-.305.202-.488.202h-1.95c-.381,0-.691.309-.691.691v3.405c0,.381.309.691.691.691h1.95c.183,0,.359.073.488.202l2.688,2.688c.435.435,1.179.127,1.179-.488V7.194Z" fill="#d70f15"/>
</svg>