<?xml version="1.0" encoding="UTF-8"?>
<svg id="Layer_1" data-name="Layer 1" xmlns="http://www.w3.org/2000/svg" viewBox="0 0 24 24">
  <path d="M15.884,14.572c-.125,0-.252-.039-.361-.12-.266-.199-.32-.577-.12-.842.638-.85.638-2.038,0-2.888-.2-.266-.146-.643.12-.842.267-.2.644-.145.842.12.957,1.276.957,3.057,0,4.333-.118.157-.299.241-.482.241Z" fill="#d70f15"/>
  <path d="M23.286,11.285c-.395,0-.715.32-.715.715,0,5.829-4.742,10.571-10.571,10.571S1.429,17.829,1.429,12,6.171,1.429,11.998,1.429c2.459.009,4.809.792,6.761,2.227l-.823.091c-.392.043-.675.397-.632.789.04.366.35.636.709.636.026,0,.053-.001.079-.004l2.486-.275c.392-.043.675-.396.632-.789l-.275-2.486c-.043-.392-.397-.676-.789-.632-.392.043-.675.396-.632.789l.08.721C17.402.888,14.763.01,12,0,5.383,0,0,5.383,0,12s5.383,12,12,12,12-5.383,12-12c0-.395-.32-.715-.715-.715Z" fill="#d70f15"/>
  <path d="M13.786,6.691c0-.68-.822-1.02-1.302-.539l-2.97,2.97c-.143.143-.337.223-.539.223h-2.154c-.421,0-.763.342-.763.763v3.761c0,.421.342.763.763.763h2.154c.202,0,.396.08.539.223l2.97,2.97c.481.481,1.302.14,1.302-.539V6.691Z" fill="#d70f15"/>
</svg>