<?xml version="1.0" encoding="UTF-8"?>
<svg id="Layer_1" data-name="Layer 1" xmlns="http://www.w3.org/2000/svg" viewBox="0 0 170.08 170.08">
  <defs>
    <style>
      .cls-1 {
        fill: #d32e2e;
      }

      .cls-2 {
        fill: #fff;
      }
    </style>
  </defs>
  <rect class="cls-1" width="170.08" height="170.08" rx="37.36" ry="37.36"/>
  <path class="cls-2" d="M87.27,133.21c-9.02,4.68-18.2,5.39-28.3,4.79-12.94-.77-25.58-5.59-35.05-15.06l11.62-14.07,3.98,3.76c9.9,8.23,28.55,12.21,38.92,4.92,5.55-3.9,6.55-12.09,1.52-16.78-2.35-2.19-5.2-3.64-8.28-4.49l-18.34-5.05c-15.63-4.3-26.79-13-25.96-30.26.45-9.39,5.47-17.83,13.44-22.79,12.9-8.04,30.12-7.78,44.13-2.55,5.28,2.19,9.79,4.91,14.16,8.85l-10.46,13.67c-4.61-3.71-9.25-6.67-14.83-8.14-7.02-1.85-14.48-1.87-20.93,1.35-4.42,2.2-6.74,6.4-6.27,11.31.68,7.02,8.24,9.69,14.97,11.49l12.89,3.44c15.23,4.07,27.42,11.23,28.17,28.34.51,11.47-5.07,21.92-15.38,27.27Z"/>
  <rect class="cls-2" x="111.86" y="118.4" width="40.7" height="14.57" rx="1.42" ry="1.42"/>
</svg>